<svg width="13" height="12" viewBox="0 0 13 12" fill="none" xmlns="http://www.w3.org/2000/svg">
    <path d="M3.29799 5.9997L6.85246 1.45818C6.90737 1.38854 6.85781 1.28542 6.76808 1.28542H5.73281C5.66719 1.28542 5.60424 1.31622 5.56406 1.36711L2.14487 5.73586C2.08565 5.81132 2.05347 5.90446 2.05347 6.00037C2.05347 6.09629 2.08565 6.18943 2.14487 6.26488L5.56406 10.6323C5.60424 10.6845 5.66719 10.714 5.73281 10.714H6.76808C6.85781 10.714 6.90737 10.6109 6.85246 10.5412L3.29799 5.9997ZM7.36942 5.9997L10.9239 1.45818C10.9788 1.38854 10.9292 1.28542 10.8395 1.28542H9.80424C9.73862 1.28542 9.67567 1.31622 9.63549 1.36711L6.2163 5.73586C6.15708 5.81132 6.1249 5.90446 6.1249 6.00037C6.1249 6.09629 6.15708 6.18943 6.2163 6.26488L9.63549 10.6323C9.67567 10.6845 9.73862 10.714 9.80424 10.714H10.8395C10.9292 10.714 10.9788 10.6109 10.9239 10.5412L7.36942 5.9997Z" fill="#1A2037"/>
</svg>
