<svg width="13" height="12" viewBox="0 0 13 12" fill="none" xmlns="http://www.w3.org/2000/svg">
<path d="M6.78404 5.73586L3.36484 1.36711C3.32467 1.31488 3.26172 1.28542 3.19609 1.28542H2.16083C2.07109 1.28542 2.02154 1.38854 2.07645 1.45818L5.63092 5.9997L2.07645 10.5412C2.06409 10.557 2.05641 10.576 2.05431 10.5959C2.05221 10.6159 2.05576 10.636 2.06456 10.654C2.07336 10.672 2.08706 10.6872 2.10408 10.6978C2.12111 10.7084 2.14077 10.714 2.16083 10.714H3.19609C3.26172 10.714 3.32467 10.6832 3.36484 10.6323L6.78404 6.26488C6.90592 6.10818 6.90592 5.89122 6.78404 5.73586ZM10.8555 5.73586L7.43627 1.36711C7.39609 1.31488 7.33315 1.28542 7.26752 1.28542H6.23225C6.14252 1.28542 6.09297 1.38854 6.14788 1.45818L9.70234 5.9997L6.14788 10.5412C6.13551 10.557 6.12784 10.576 6.12574 10.5959C6.12364 10.6159 6.12719 10.636 6.13599 10.654C6.14479 10.672 6.15849 10.6872 6.17551 10.6978C6.19253 10.7084 6.2122 10.714 6.23225 10.714H7.26752C7.33315 10.714 7.39609 10.6832 7.43627 10.6323L10.8555 6.26488C10.9773 6.10818 10.9773 5.89122 10.8555 5.73586Z" fill="#1A2037"/>
</svg>
