<svg width="13" height="12" viewBox="0 0 13 12" fill="none" xmlns="http://www.w3.org/2000/svg">
<path d="M9.33962 2.06623V1.03096C9.33962 0.941227 9.2365 0.891673 9.16685 0.946584L3.12935 5.66221C3.07805 5.7021 3.03655 5.75318 3.00799 5.81156C2.97944 5.86993 2.9646 5.93406 2.9646 5.99904C2.9646 6.06402 2.97944 6.12815 3.00799 6.18652C3.03655 6.2449 3.07805 6.29598 3.12935 6.33587L9.16685 11.0515C9.23783 11.1064 9.33962 11.0569 9.33962 10.9671V9.93185C9.33962 9.86623 9.30882 9.80328 9.25792 9.7631L4.43649 5.99971L9.25792 2.23498C9.30882 2.1948 9.33962 2.13185 9.33962 2.06623Z" fill="#1A2037"/>
</svg>
