<svg width="13" height="12" viewBox="0 0 13 12" fill="none" xmlns="http://www.w3.org/2000/svg">
<path d="M9.89777 5.6628L3.86027 0.947173C3.84449 0.934753 3.82553 0.927035 3.80557 0.924904C3.7856 0.922773 3.76544 0.926317 3.7474 0.935128C3.72936 0.943939 3.71417 0.957661 3.70357 0.974716C3.69298 0.991772 3.68741 1.01147 3.6875 1.03155V2.06682C3.6875 2.13244 3.7183 2.19539 3.7692 2.23557L8.59063 6.0003L3.7692 9.76503C3.71697 9.80521 3.6875 9.86816 3.6875 9.93378V10.969C3.6875 11.0588 3.79063 11.1083 3.86027 11.0534L9.89777 6.3378C9.94908 6.29777 9.9906 6.24657 10.0191 6.18809C10.0477 6.1296 10.0625 6.06538 10.0625 6.0003C10.0625 5.93522 10.0477 5.87099 10.0191 5.81251C9.9906 5.75403 9.94908 5.70283 9.89777 5.6628Z" fill="#1A2037"/>
</svg>
